<svg width="24" height="24" viewBox="0 0 24 24" fill="none" xmlns="http://www.w3.org/2000/svg">
<path d="M23.25 5.13282C22.406 5.49955 21.513 5.74116 20.5992 5.85001C21.5595 5.28769 22.2817 4.39434 22.6303 3.33751C21.7224 3.86841 20.7307 4.24092 19.6978 4.43907C19.2629 3.98322 18.7397 3.62059 18.1603 3.3732C17.5808 3.12581 16.9571 2.99884 16.327 3.00001C13.7761 3.00001 11.7117 5.03438 11.7117 7.5422C11.7099 7.89102 11.7499 8.23881 11.8308 8.57813C10.0016 8.49238 8.2104 8.02575 6.57187 7.2081C4.93333 6.39044 3.48351 5.23977 2.31516 3.8297C1.90527 4.52069 1.6885 5.30909 1.6875 6.11251C1.6875 7.68751 2.50922 9.0797 3.75 9.89532C3.01487 9.87787 2.29481 9.68331 1.65094 9.32813V9.38438C1.65094 11.5875 3.24469 13.4203 5.35406 13.8375C4.9574 13.9432 4.54864 13.9968 4.13812 13.9969C3.84683 13.9974 3.5562 13.9691 3.27047 13.9125C3.85687 15.7172 5.56359 17.0297 7.58531 17.0672C5.94252 18.3333 3.9256 19.0175 1.85156 19.0125C1.48341 19.012 1.11561 18.99 0.75 18.9469C2.85993 20.2942 5.31255 21.0068 7.81594 21C16.3172 21 20.9616 14.0766 20.9616 8.07188C20.9616 7.87501 20.9564 7.67813 20.947 7.48595C21.8485 6.84472 22.6283 6.04787 23.25 5.13282Z" fill="white"/>
</svg>
